<svg width="100" height="32" viewBox="0 0 100 32" fill="none" xmlns="http://www.w3.org/2000/svg">
<path fill-rule="evenodd" clip-rule="evenodd" d="M20 13C20 14.1046 19.1046 15 18 15C16.8954 15 16 14.1046 16 13C16 11.8954 16.8954 11 18 11C19.1046 11 20 11.8954 20 13ZM22 13C22 15.2091 20.2091 17 18 17C15.7909 17 14 15.2091 14 13C14 10.7909 15.7909 9 18 9C20.2091 9 22 10.7909 22 13ZM16 18C13.7909 18 12 19.7909 12 22V23H14V22C14 20.8954 14.8954 20 16 20H20C21.1046 20 22 20.8954 22 22V23H24V22C24 19.7909 22.2091 18 20 18H16Z" fill="white"/>
</svg>
