<svg width="100" height="32" viewBox="0 0 100 32" fill="none" xmlns="http://www.w3.org/2000/svg">
<rect x="71" y="3" width="26" height="26" rx="13" fill="#F5F5F5"/>
<path fill-rule="evenodd" clip-rule="evenodd" d="M85.4297 17.9678C86.7916 17.4057 87.75 16.0648 87.75 14.5C87.75 12.4289 86.071 10.75 84 10.75C81.9289 10.75 80.25 12.4289 80.25 14.5C80.25 16.0647 81.2083 17.4056 82.5701 17.9677C81.1754 18.1999 79.8925 18.7659 78.8082 19.5806L80.1898 21.4194C81.2511 20.6221 82.5686 20.15 83.9997 20.15C85.4309 20.15 86.7484 20.6221 87.8097 21.4194L89.1912 19.5806C88.1071 18.766 86.8243 18.2 85.4297 17.9678Z" fill="black"/>
</svg>
